<svg xmlns="http://www.w3.org/2000/svg" xmlns:xlink="http://www.w3.org/1999/xlink" width="64" height="64" viewBox="0 0 64 64">
    <defs>
        <path id="x5enuttxoa" d="M0 64L64 64 64 0 0 0z"/>
    </defs>
    <g fill="none" fill-rule="evenodd">
        <g>
            <g>
                <g transform="translate(-850.000000, -660.000000) translate(815.000000, 100.000000) translate(35.000000, 560.000000)">
                    <path stroke="#3D1152" stroke-linecap="square" stroke-linejoin="round" stroke-width="2" d="M3 7.759c.623.157 1.292.24 2 .24 3 0 4.687-1 8-1 3.314 0 6 2.688 6 6M63 63L1 63M60 63L60 41 63 38 63 34 28 34 28 38 31 41 31 62.663M60 41L49 41M36 41L31 41M59 22L59 33M9 54L9 56M15 54L15 56M21 54L21 56M27 54L27 56M37 51L37 53M43 51L43 53M49 51L49 53M55 51L55 53M4 63L4 48 27 48M8 34L8 48"/>
                    <mask id="3j4b8msnjb" fill="#fff">
                        <use xlink:href="#x5enuttxoa"/>
                    </mask>
                    <path stroke="#3D1152" stroke-linecap="square" stroke-linejoin="round" stroke-width="2" d="M15 48L23 48 23 16 15 16zM51 16L54 16M51 24L54 24M55 30V5c0-2.209-1.791-4-4-4h-6c-2.209 0-4 1.791-4 4v1" mask="url(#3j4b8msnjb)"/>
                    <path stroke="#3D1152" stroke-linecap="square" stroke-linejoin="round" stroke-width="2" d="M48 33V16c0-3.866-3.134-7-7-7s-7 3.134-7 7v16.18" mask="url(#3j4b8msnjb)"/>
                </g>
            </g>
        </g>
    </g>
</svg>
