<svg xmlns="http://www.w3.org/2000/svg" width="48" height="64" viewBox="0 0 48 64">
    <g fill="none" fill-rule="evenodd" stroke-linecap="round" stroke-linejoin="round">
        <g stroke="#3D1152" stroke-width="2">
            <g>
                <g>
                    <g>
                        <path d="M25 34c12.646.131 11-15 11-15s-4.34.291-8 3M24 32c3.718-15.848-10.98-12.635-14-18-.155.95-6.984 19.28 9 20M17 25s10 6 8 16" transform="translate(-852.000000, -454.000000) translate(815.000000, 100.000000) translate(35.000000, 355.000000) translate(3.000000, 0.000000)"/>
                        <path d="M20.38.145C9.809 1.313 1.298 9.835.143 20.41c-.915 8.379 2.675 15.976 8.65 20.677C12.117 43.704 14 47.745 14 51.975V52h18v-.025c0-4.287 1.985-8.314 5.335-10.988C42.615 36.772 46 30.282 46 23 46 9.436 34.256-1.386 20.38.145zM15 57L31 57M18 61L19 62 27 62 28 61" transform="translate(-852.000000, -454.000000) translate(815.000000, 100.000000) translate(35.000000, 355.000000) translate(3.000000, 0.000000)"/>
                    </g>
                </g>
            </g>
        </g>
    </g>
</svg>
