<svg xmlns="http://www.w3.org/2000/svg" width="64" height="64" viewBox="0 0 64 64">
    <g fill="none" fill-rule="evenodd" stroke-linecap="square" stroke-linejoin="round">
        <g stroke="#3D1152" stroke-width="2">
            <g>
                <g>
                    <path d="M23 41.004v-22c0-6.075-4.925-11-11-11s-11 4.925-11 11v22M55.998 16.004c3.866 0 7 3.134 7 7v39M43.998 16.004c-3.866 0-7 3.134-7 7v39M55.002 46.003L55.002 6.004" transform="translate(-851.000000, -461.000000) translate(815.000000, 100.000000) translate(36.000000, 362.000000)"/>
                    <path d="M51.002 6L57.002 6 57.002 0 43.002 0 43.002 6 45.002 7.001 45.002 42M27 31.004L32.001 31.004M41.002 31.004L45.002 31.004M55.002 31.004L61.998 31.004M27 42.006L32.001 42.006M14 30.505c0 1.104-.896 2-2 2s-2-.896-2-2 .896-2 2-2 2 .896 2 2zM14 42.006c0 1.104-.896 2-2 2s-2-.896-2-2 .896-2 2-2 2 .896 2 2zM55 62.004L55 53.005 45.999 53.005 45.999 62.004M30 62.004v-53c0-4.971-4.029-9-9-9-4.434 0-8.119 3.206-8.863 7.427M1 42.004L1 62.004M23 42.004L23 62.004M12.047 56.007L12.047 62.004M20.998 16.004L7.005 16.004M63 46.007L43.005 46.007" transform="translate(-851.000000, -461.000000) translate(815.000000, 100.000000) translate(36.000000, 362.000000)"/>
                </g>
            </g>
        </g>
    </g>
</svg>
