<svg xmlns="http://www.w3.org/2000/svg" width="64" height="64" viewBox="0 0 64 64">
    <g fill="none" fill-rule="evenodd" stroke-linecap="round" stroke-linejoin="round">
        <g stroke="#381460" stroke-width="2">
            <g>
                <path d="M16.707 44.896h9.237v12.828H13.03c-2.165 0-4.159-1.223-5.21-3.195-1.012-1.893-1-4.2.029-6.084l7.876-14.42 3.649 2.11L15.38 21.6 1.428 25.762l3.53 2.041-4.311 8.083c-.863 1.615-.863 3.578 0 5.192l7.211 13.523M48.8 38.482l-4.339-8.134 10.64-6.465 6.124 11.484c1.033 1.936 1.033 4.293 0 6.23-1.085 2.036-3.145 3.3-5.381 3.3H40.31V40.62l-4.104 4.276-6.157 6.414 6.157 6.414L40.31 62v-4.276h9.297c1.862 0 3.58-1.053 4.484-2.75l7.134-13.377M23.89 0h15.454c1.863 0 3.58 1.053 4.485 2.749l4.51 8.455 3.583-2.078-1.59 5.817-2.383 8.723-8.375-2.483-5.583-1.656 3.59-2.081-6.417-13.078C29.85 1.688 27.203 0 24.314 0c-2.796 0-5.37 1.577-6.728 4.12l-5.395 10.12 10.843 6.082 3.997-7.494" transform="translate(-846.000000, -695.000000) translate(847.000000, 696.000000)"/>
            </g>
        </g>
    </g>
</svg>
