<svg xmlns="http://www.w3.org/2000/svg" width="64" height="64" viewBox="0 0 64 64">
    <g fill="none" fill-rule="evenodd" stroke-linecap="round" stroke-linejoin="round">
        <g stroke="#381460" stroke-width="2">
            <g>
                <path d="M0 45.999L5.996 43.005 15.996 59.005 10 61.999M26 45h12c2.2 0 4-1.801 4-4 0-2.202-1.8-4-4-4H22.162c-1.416 0-2.807.374-4.03 1.09L8 44" transform="translate(-846.000000, -485.000000) translate(847.000000, 486.000000)"/>
                <path d="M38.996 45l17.48-6.67c2.032-.844 4.383.13 5.225 2.163.842 2.033-.132 4.386-2.164 5.227l-17.672 7.486c-1.234.523-2.56.793-3.9.793H22.26c-1.087 0-2.153.295-3.084.854l-3.573 2.145M25 37l-.93-2.791c-.047-.14-.117-.269-.208-.382L20 29M32.984 6.675l-1.434.957c-.343.23-.55.615-.55 1.027v1.327c0 .59-.416 1.095-.994 1.21l-3.35.672c-.409.08-.75.366-.904.752l-1.442 3.602c-.187.47-.642.777-1.147.777h-.652c-.328 0-.642.13-.873.362l-1.008 1.007c-.376.377-.47.952-.232 1.428l1.348 2.693c.161.325.455.561.804.647l3.118.78c.216.054.416.167.574.325l2.493 2.493c.173.173.393.291.632.337l3.46.694c.653.131 1.086.756.975 1.414l-.699 4.2c-.064.39-.312.724-.666.901l-.754.377c-.419.21-.683.637-.683 1.106V37M45 8h-1.201c-.468 0-.896.264-1.106.681l-.931 1.862c-.362.72.052 1.588.84 1.762l3.535.773c.213.046.41.149.572.296l.892.82c.254.236.399.565.399.91v.66c0 .68-.553 1.236-1.236 1.236h-2.563c-.133 0-.265-.021-.391-.064l-1.792-.599c-.584-.192-1.222.07-1.497.622l-1.265 2.526c-.162.328-.174.706-.03 1.041l2.453 5.724c.194.454.641.75 1.135.75h.684c.52 0 .984.323 1.162.811l2.77 7.623c.284.779 1.24 1.064 1.904.566l2.172-1.63c.31-.233.494-.6.494-.99v-1.008c0-.243.072-.482.207-.686l3.49-5.232c.194-.29.254-.648.17-.986l-.834-3.337c-.021-.088-.053-.172-.094-.253l-1.044-2.09C53.483 18.966 54.081 18 55 18" transform="translate(-846.000000, -485.000000) translate(847.000000, 486.000000)"/>
                <path d="M18.001 37.271C15.473 33.47 14 28.906 14 24 14 10.744 24.745 0 38 0s24 10.744 24 24c0 5.224-1.67 10.058-4.504 14" transform="translate(-846.000000, -485.000000) translate(847.000000, 486.000000)"/>
            </g>
        </g>
    </g>
</svg>
