<svg xmlns="http://www.w3.org/2000/svg" width="64" height="64" viewBox="0 0 64 64">
    <g fill="none" fill-rule="evenodd" stroke-linecap="round" stroke-linejoin="round">
        <g stroke="#381460" stroke-width="2">
            <g>
                <path d="M43 62v-.962l-3.753-4.513c-.164-.197-.315-.408-.439-.632C37.579 53.67 37 51.041 37 48.531v-6.695c0-1.323.125-2.405 1.5-2.405S42 41.678 42 43v5-18.595C42 28.082 43.125 27 44.5 27s2.5 1.082 2.5 2.405V42v-2.051c0-1.323 1.125-2.405 2.5-2.405s2.5 1.082 2.5 2.405V43v-1.127c0-1.322 1.125-2.405 2.5-2.405s2.5 1.083 2.5 2.405V45v-1.203c0-1.322 1.125-2.404 2.5-2.404s2.5 1.082 2.5 2.404v4.734c0 3.438-.785 6.67-2.104 9.848-.138.336-.327.65-.55.936L58 61.038V62" transform="translate(-843.000000, -803.000000) translate(844.000000, 804.000000)"/>
                <path d="M31 40H4c-2.209 0-4-1.791-4-4V4c0-2.209 1.791-4 4-4h54c2.209 0 4 1.791 4 4v31" transform="translate(-843.000000, -803.000000) translate(844.000000, 804.000000)"/>
                <path d="M36 34L6 34 6 6 50 6 50 24M56 18L56 24M17 20L14 20" transform="translate(-843.000000, -803.000000) translate(844.000000, 804.000000)"/>
                <path d="M19 25L14 25 14 15 19 15M26 25h-2V15h2c2.209 0 4 1.791 4 4v2c0 2.209-1.791 4-4 4zM35 15v7c0 1.657 1.343 3 3 3 1.656 0 3-1.343 3-3v-7" transform="translate(-843.000000, -803.000000) translate(844.000000, 804.000000)"/>
            </g>
        </g>
    </g>
</svg>
