<svg xmlns="http://www.w3.org/2000/svg" width="64" height="64" viewBox="0 0 64 64">
    <g fill="none" fill-rule="evenodd" stroke-linecap="round" stroke-linejoin="round">
        <g stroke="#3D1152" stroke-width="2">
            <g>
                <g>
                    <path d="M20.881 7c0 10.756 5.143 19.456 8.053 23.518 1.269 1.773 1.896 3.927 1.822 6.109l-.742 21.51C29.94 60.29 28.172 62 26.016 62H4.744C2.59 62 .822 60.29.748 58.137l-.742-21.51c-.076-2.182.553-4.336 1.822-6.11C4.738 26.457 9.881 17.757 9.881 7" transform="translate(-847.000000, -786.000000) translate(815.000000, 100.000000) translate(33.000000, 687.000000)"/>
                    <path d="M6.04 38.498L7.88 56h15l1.853-17.62c.094-.872-.39-1.716-1.205-2.048C22.105 35.75 19.557 35 15.881 35c-3.819 0-6.826.81-8.51 1.398-.879.308-1.43 1.174-1.332 2.1zM10.881 7h-1V2c0-1.105.895-2 2-2h7c1.104 0 2 .895 2 2v5h-4M47.881 16h12c1.104 0 2 .895 2 2v41c0 1.656-1.344 3-3 3h-18c-1.658 0-3-1.344-3-3V18c0-1.105.895-2 2-2h2M40.881 16v-4c0-1.105.895-2 2-2h14c1.104 0 2 .895 2 2v4M46.881 10L47.881 0 51.881 0 52.881 10" transform="translate(-847.000000, -786.000000) translate(815.000000, 100.000000) translate(33.000000, 687.000000)"/>
                    <path d="M61.881 34H56.11c-.606 0-1.174-.277-1.551-.75-1.1-1.371-2.785-2.25-4.678-2.25-1.895 0-3.58.879-4.678 2.25-.379.473-.947.75-1.551.75h-1.771M61.881 40H56.11c-.606 0-1.174.277-1.551.749-1.1 1.37-2.785 2.25-4.678 2.25-1.895 0-3.58-.88-4.678-2.25-.379-.472-.947-.75-1.551-.75h-5.771" transform="translate(-847.000000, -786.000000) translate(815.000000, 100.000000) translate(33.000000, 687.000000)"/>
                </g>
            </g>
        </g>
    </g>
</svg>
