<svg xmlns="http://www.w3.org/2000/svg" width="64" height="64" viewBox="0 0 64 64">
    <g fill="none" fill-rule="evenodd" stroke-linecap="round" stroke-linejoin="round">
        <g stroke="#3D1152" stroke-width="2">
            <g>
                <path d="M0 29c0-1.104.896-2 2-2h9.996c1.105 0 2 .896 2 2v10c0 1.104-.895 2-2 2H2c-1.104 0-2-.896-2-2V29zM24 29c0-1.104.896-2 2-2h9.996c1.105 0 2 .896 2 2v10c0 1.104-.895 2-2 2H26c-1.104 0-2-.896-2-2V29zM22 2c0-1.104.896-2 2-2h14c1.104 0 2 .896 2 2v10c0 1.104-.896 2-2 2H24c-1.104 0-2-.896-2-2V2zM48 29c0-1.104.896-2 2-2h9.996c1.105 0 2 .896 2 2v10c0 1.104-.895 2-2 2H50c-1.104 0-2-.896-2-2V29zM24 50c0-1.104.896-2 2-2h9.996c1.105 0 2 .896 2 2v10c0 1.104-.895 2-2 2H26c-1.104 0-2-.896-2-2V50zM48 50c0-1.104.896-2 2-2h9.996c1.105 0 2 .896 2 2v10c0 1.104-.895 2-2 2H50c-1.104 0-2-.896-2-2V50zM31 14L31 27M31 41L31 48M55 41L55 48M14 34L24 34M38 34L48 34" transform="translate(-850.000000, -786.000000) translate(851.000000, 787.000000)"/>
                <path d="M55 27v-5c0-1.104-.896-2-2-2H9c-1.104 0-2 .896-2 2v5" transform="translate(-850.000000, -786.000000) translate(851.000000, 787.000000)"/>
            </g>
        </g>
    </g>
</svg>
