<svg xmlns="http://www.w3.org/2000/svg" width="64" height="64" viewBox="0 0 64 64">
    <g fill="none" fill-rule="evenodd" stroke-linecap="round" stroke-linejoin="round">
        <g stroke="#3D1152" stroke-width="2">
            <g>
                <g>
                    <path d="M46.928 29.342C48.864 26.365 50 22.817 50 19 50 8.508 41.492 0 31 0S12 8.508 12 19c0 10.494 8.508 19 19 19 3.817 0 7.364-1.137 10.342-3.07L50 38l-3.072-8.658z" transform="translate(-848.000000, -805.000000) translate(815.000000, 100.000000) translate(34.000000, 706.000000)"/>
                    <path d="M37.577 42C35.74 50.572 28.12 57 19 57c-3.817 0-7.363-1.137-10.342-3.07L0 57l3.072-8.66C1.137 45.363 0 41.816 0 38c0-5.941 2.728-11.247 7-14.731M12.443 20.16C14.488 19.41 16.695 19 19 19c9.902 0 18.037 7.578 18.92 17.25" transform="translate(-848.000000, -805.000000) translate(815.000000, 100.000000) translate(34.000000, 706.000000)"/>
                    <path d="M44 24.026c-.331-.018-.664-.026-1-.026-3.195 0-6.205.79-8.848 2.183M31.34 58.002C34.559 60.508 38.604 62 43 62c3.817 0 7.363-1.137 10.342-3.07L62 62l-3.072-8.66C60.863 50.363 62 46.816 62 43c0-8.301-5.326-15.363-12.752-17.945M30 29.143c-3.693 3.469-6 8.396-6 13.857 0 4.235 1.385 8.14 3.725 11.3" transform="translate(-848.000000, -805.000000) translate(815.000000, 100.000000) translate(34.000000, 706.000000)"/>
                </g>
            </g>
        </g>
    </g>
</svg>
