<svg xmlns="http://www.w3.org/2000/svg" width="57" height="61" viewBox="0 0 57 61">
    <g fill="none" fill-rule="evenodd" stroke-linecap="square" stroke-linejoin="round">
        <g stroke="#3D1152" stroke-width="2">
            <g>
                <path d="M40 4c0 2.209-1.791 4-4 4s-4-1.791-4-4 1.791-4 4-4 4 1.791 4 4zM42 55c0 2.209-1.791 4-4 4s-4-1.791-4-4 1.791-4 4-4 4 1.791 4 4zM54 13c0 2.209-1.791 4-4 4s-4-1.791-4-4 1.791-4 4-4 4 1.791 4 4zM55 45c0 2.209-1.791 4-4 4s-4-1.791-4-4 1.791-4 4-4 4 1.791 4 4zM54 30c0 2.209-1.791 4-4 4s-4-1.791-4-4 1.791-4 4-4 4 1.791 4 4zM46 30L18 30M32 23L35 23 41 13 46 13M0 37L35 37 41 45 46 45" transform="translate(-850.000000, -792.000000) translate(851.000000, 793.000000)"/>
                <path d="M19 15L28 15 33.783 7.329M21 43L28 43 35 51.36M15 15L14 15M27 23L26 23M13 30L12 30M17 43L16 43M11 43L0 43M7 30L6 30M1 30L0 30M9 15L0 15M22 23L0 23" transform="translate(-850.000000, -792.000000) translate(851.000000, 793.000000)"/>
            </g>
        </g>
    </g>
</svg>
