<svg xmlns="http://www.w3.org/2000/svg" width="64" height="64" viewBox="0 0 64 64">
    <g fill="none" fill-rule="evenodd" stroke-linejoin="round">
        <g stroke="#3D1152" stroke-width="2">
            <g>
                <path stroke-linecap="round" d="M62 46c0 8.837-7.163 16-16 16s-16-7.163-16-16 7.163-16 16-16 16 7.163 16 16z" transform="translate(-850.000000, -788.000000) translate(851.000000, 789.000000)"/>
                <path stroke-linecap="round" d="M46 37L46 46 55 46M24.999 51H2c-1.105 0-2-.896-2-2V5c0-1.104.895-2 2-2h52c1.104 0 2 .896 2 2v22M10 0L10 6M19 0L19 6M28 0L28 6M37 0L37 6M46 0L46 6" transform="translate(-850.000000, -788.000000) translate(851.000000, 789.000000)"/>
                <path stroke-linecap="square" d="M6 14L50 14" transform="translate(-850.000000, -788.000000) translate(851.000000, 789.000000)"/>
            </g>
        </g>
    </g>
</svg>
