<svg xmlns="http://www.w3.org/2000/svg" width="50" height="64" viewBox="0 0 50 64">
    <g fill="none" fill-rule="evenodd" stroke-linecap="round" stroke-linejoin="round">
        <g stroke="#381460" stroke-width="2">
            <g>
                <path d="M32.282 36.068L25.717 36.068" transform="translate(-851.000000, -651.000000) translate(852.000000, 652.000000)"/>
                <g>
                    <path d="M34.158 40.487v-1.606 1.606c-1.558.766-3.304 1.208-5.158 1.208-1.853 0-3.6-.442-5.158-1.208v-1.606 1.606M23.364 33.254c-.33-2.34-1.37-4.604-3.124-6.445-4.47-4.685-4.293-12.105.392-16.573C22.975 8.001 26 6.928 29 7c2.999-.07 6.026 1.002 8.368 3.237 4.685 4.468 4.86 11.888.392 16.573-1.755 1.841-2.794 4.104-3.124 6.445H23.364z" transform="translate(-851.000000, -651.000000) translate(852.000000, 652.000000)"/>
                    <path d="M27.593 29.504s-.938-10.316-2.813-10.316h8.44c-1.876 0-2.814 10.316-2.814 10.316" transform="translate(-851.000000, -651.000000) translate(852.000000, 652.000000)"/>
                    <path d="M26 0C13 0 4 9.402 4 21v1L0 36h5v8c0 2.761 2.239 5 5 5h8l-1 13h28l-2-20c0-1.713 1.359-4.987 1.766-5.892C46.764 32.268 48 27.311 48 22.5 48 10.074 40 0 26 0z" transform="translate(-851.000000, -651.000000) translate(852.000000, 652.000000)"/>
                </g>
            </g>
        </g>
    </g>
</svg>
