<svg xmlns="http://www.w3.org/2000/svg" width="64" height="64" viewBox="0 0 64 64">
    <g fill="none" fill-rule="evenodd" stroke-linejoin="round">
        <g stroke="#3D1152" stroke-width="2">
            <g>
                <g>
                    <path stroke-linecap="round" d="M22 40H8c-4.418 0-8-3.582-8-8s3.582-8 8-8c.833 0 1.637.128 2.391.364-.246-1-.391-2.039-.391-3.114 0-7.18 5.82-13 13-13 3.781 0 7.174 1.624 9.55 4.2" transform="translate(-848.000000, -660.000000) translate(815.000000, 100.000000) translate(34.000000, 561.000000)"/>
                    <path stroke-linecap="round" d="M25.635 8.524C29.253 3.375 35.228 0 42 0c9.676 0 17.747 6.871 19.6 16" transform="translate(-848.000000, -660.000000) translate(815.000000, 100.000000) translate(34.000000, 561.000000)"/>
                    <path d="M28 25.5c0 4.143 7.611 7.5 17 7.5s17-3.357 17-7.5S54.389 18 45 18s-17 3.357-17 7.5z" transform="translate(-848.000000, -660.000000) translate(815.000000, 100.000000) translate(34.000000, 561.000000)"/>
                    <path stroke-linecap="round" d="M62 42v11.569C62 58.525 54.389 62 45 62s-17-3.475-17-8.431V42" transform="translate(-848.000000, -660.000000) translate(815.000000, 100.000000) translate(34.000000, 561.000000)"/>
                    <path stroke-linecap="round" d="M62 34v10.207C62 49.163 54.389 53 45 53s-17-3.837-17-8.793V34" transform="translate(-848.000000, -660.000000) translate(815.000000, 100.000000) translate(34.000000, 561.000000)"/>
                    <path stroke-linecap="round" d="M62 26v7.842C62 38.798 54.389 43 45 43s-17-4.202-17-9.158V26" transform="translate(-848.000000, -660.000000) translate(815.000000, 100.000000) translate(34.000000, 561.000000)"/>
                </g>
            </g>
        </g>
    </g>
</svg>
