<svg xmlns="http://www.w3.org/2000/svg" width="56" height="57" viewBox="0 0 56 57">
    <g fill="none" fill-rule="evenodd" stroke-linecap="round" stroke-linejoin="round">
        <g stroke="#381460" stroke-width="2">
            <g>
                <path d="M17 20s.173 3.44.626 5.327C18.736 29.95 22.88 33 27.5 33c4.617 0 8.753-3.04 9.867-7.673C37.824 23.442 38 20 38 20M20.946 31s.393 1.642-.946 4M33.054 31s-.393 1.642.946 4M54 54s0-10.364-6.91-13.818L35 35M0 54s0-10.364 6.91-13.818L19 35M15.857 40L15 46.125 21 40s6 2.625 6 14M21 40L19 35M38.143 40L39 46.125 33 40s-6 2.625-6 14M33 40L35 35M35 54.5L45 54.5M37.5 50L37.5 54M42 51L41 54M12 14v.8c1.56 2.294 7.905 3.2 15 3.2 7.092 0 13.437-.906 15-3.2V14M35 13c-2.32.48-5.062 1-8 1-2.939 0-5.68-.52-8-1M30 4V.915c0-.391-.293-.737-.696-.792C28.72.043 28.117 0 27.5 0s-1.22.043-1.804.123C25.292.178 25 .524 25 .915V4M40 12c0-5.275-4.134-9.89-10-11M25 1c-5.866 1.11-10 5.725-10 11" transform="translate(-855.000000, -678.000000) translate(856.000000, 679.000000)"/>
            </g>
        </g>
    </g>
</svg>
