<svg xmlns="http://www.w3.org/2000/svg" xmlns:xlink="http://www.w3.org/1999/xlink" width="64" height="64" viewBox="0 0 64 64">
    <defs>
        <path id="62fd6st21a" d="M0 64L64 64 64 0 0 0z"/>
    </defs>
    <g fill="none" fill-rule="evenodd">
        <g>
            <g transform="translate(-852.000000, -463.000000) translate(852.000000, 463.000000)">
                <path stroke="#381460" stroke-linecap="square" stroke-linejoin="round" stroke-width="2" d="M21 5c0 2.209-1.791 4-4 4s-4-1.791-4-4 1.791-4 4-4 4 1.791 4 4zM36 5c0 2.209-1.791 4-4 4s-4-1.791-4-4 1.791-4 4-4 4 1.791 4 4zM51 5c0 2.209-1.791 4-4 4s-4-1.791-4-4 1.791-4 4-4 4 1.791 4 4zM32 13L32 17M42 10L39 12 39 17M22 10L24 12 24 17M5 41c2.209 0 4 1.791 4 4s-1.791 4-4 4-4-1.791-4-4 1.791-4 4-4zM5 28c2.209 0 4 1.791 4 4s-1.791 4-4 4-4-1.791-4-4 1.791-4 4-4zM5 15c2.209 0 4 1.791 4 4s-1.791 4-4 4-4-1.791-4-4 1.791-4 4-4zM13 32L19 32M10 24L12 25 19 25M10 40L12 39 19 39M43 59c0-2.209 1.791-4 4-4s4 1.791 4 4-1.791 4-4 4-4-1.791-4-4zM28 59c0-2.209 1.791-4 4-4s4 1.791 4 4-1.791 4-4 4-4-1.791-4-4zM13 59c0-2.209 1.791-4 4-4s4 1.791 4 4-1.791 4-4 4-4-1.791-4-4zM32 51L32 47M22 54L24 52 24 47M42 54L40 52 40 47M59 23c-2.209 0-4-1.791-4-4s1.791-4 4-4 4 1.791 4 4-1.791 4-4 4zM59 36c-2.209 0-4-1.791-4-4s1.791-4 4-4 4 1.791 4 4-1.791 4-4 4zM59 49c-2.209 0-4-1.791-4-4s1.791-4 4-4 4 1.791 4 4-1.791 4-4 4zM51 32L45 32M54 40L52 39 45 39M54 24L52 25 45 25"/>
                <mask id="u7p1etrrrb" fill="#fff">
                    <use xlink:href="#62fd6st21a"/>
                </mask>
                <path stroke="#381460" stroke-linecap="square" stroke-linejoin="round" stroke-width="2" d="M23 43L41 43 41 21 23 21z" mask="url(#u7p1etrrrb)"/>
            </g>
        </g>
    </g>
</svg>
