<svg xmlns="http://www.w3.org/2000/svg" width="64" height="64" viewBox="0 0 64 64">
    <g fill="none" fill-rule="evenodd" stroke-linecap="round" stroke-linejoin="round">
        <g stroke="#3D1152" stroke-width="2">
            <g>
                <path d="M33 57h0c0 2.762 2.238 5 5 5h5c2.762 0 5-2.238 5-5M41 0L41 2M57.914 8.736L59.385 7.322M50.153 3.751L50.95 1.903M31.846 3.751L31.05 1.903M33 49s-.786-4.146-2.368-6.227C27 38 23 32.146 23 26c0-10.005 7.995-18 18-18 10.005 0 18 7.995 18 18l3 9h-5v6c0 2.209-1.791 4-4 4h-1.658c-1.376 0-2.576.937-2.91 2.272-.287 1.148-.432 2.326-.432 3.509V53H33" transform="translate(-845.000000, -460.000000) translate(846.000000, 461.000000)"/>
                <path d="M38 43c0-6 0-12-4-16h14c-4 4-4 10-4 16M27 8h-3c-1.104 0-2 .896-2 2v.84c0 .808-.487 1.538-1.234 1.847l-5.135 2.127c-.747.31-1.608.138-2.179-.433l-.595-.594c-.78-.781-2.046-.781-2.828 0l-4.242 4.242c-.781.782-.781 2.048 0 2.828l1.067 1.067c.285.286.371.717.215 1.09l-2.381 5.752C4.378 29.513 3.648 30 2.84 30H2c-1.104 0-2 .896-2 2v6c0 1.104.896 2 2 2h.84c.808 0 1.538.487 1.848 1.234l2.126 5.135c.31.747.138 1.608-.433 2.179l-.594.595c-.781.78-.781 2.046 0 2.828l4.242 4.242c.782.781 2.048.781 2.828 0l.594-.594c.572-.571 1.433-.743 2.18-.433l5.135 2.127c.747.309 1.234 1.039 1.234 1.847V60c0 1.104.896 2 2 2h4" transform="translate(-845.000000, -460.000000) translate(846.000000, 461.000000)"/>
                <path d="M16.51 27C14.928 29.268 14 32.025 14 35c0 7.732 6.268 14 14 14h5" transform="translate(-845.000000, -460.000000) translate(846.000000, 461.000000)"/>
            </g>
        </g>
    </g>
</svg>
