<svg xmlns="http://www.w3.org/2000/svg" width="64" height="64" viewBox="0 0 64 64">
    <g fill="none" fill-rule="evenodd" stroke-linejoin="round">
        <g stroke="#381460" stroke-width="2">
            <g>
                <path stroke-linecap="round" d="M35 4c0 2.209-1.791 4-4 4s-4-1.791-4-4 1.791-4 4-4 4 1.791 4 4zM14.828 9.172c1.562 1.562 1.562 4.095 0 5.657-1.562 1.562-4.095 1.562-5.657 0-1.562-1.562-1.562-4.095 0-5.657 1.562-1.562 4.095-1.562 5.657 0zM4 27c2.209 0 4 1.791 4 4s-1.791 4-4 4-4-1.791-4-4 1.791-4 4-4zM9.172 47.172c1.562-1.562 4.095-1.562 5.657 0 1.562 1.562 1.562 4.095 0 5.657-1.562 1.562-4.095 1.562-5.657 0-1.562-1.562-1.562-4.095 0-5.657zM27 58c0-2.209 1.791-4 4-4s4 1.791 4 4-1.791 4-4 4-4-1.791-4-4zM47.172 52.828c-1.562-1.562-1.562-4.095 0-5.657 1.562-1.562 4.095-1.562 5.657 0 1.562 1.562 1.562 4.095 0 5.657-1.562 1.562-4.095 1.562-5.657 0zM58 35c-2.209 0-4-1.791-4-4s1.791-4 4-4 4 1.791 4 4-1.791 4-4 4zM52.828 14.828c-1.562 1.562-4.095 1.562-5.657 0-1.562-1.562-1.562-4.095 0-5.657 1.562-1.562 4.095-1.562 5.657 0 1.562 1.562 1.562 4.095 0 5.657zM35 31c0 2.209-1.791 4-4 4s-4-1.791-4-4 1.791-4 4-4 4 1.791 4 4zM45.5 31L39.5 31" transform="translate(-846.000000, -687.000000) translate(847.000000, 688.000000)"/>
                <path stroke-linecap="square" d="M23.343 7.224L19.656 8.776M8.755 19.648L7.246 23.352M7.224 38.657L8.776 42.344M19.648 53.245L23.352 54.754M38.657 54.776L42.344 53.224M53.245 42.352L54.754 38.648M54.776 23.343L53.224 19.656M42.352 8.755L38.648 7.246" transform="translate(-846.000000, -687.000000) translate(847.000000, 688.000000)"/>
                <path stroke-linecap="round" d="M19.624 15.194L27.624 18.498M26.53 40.306L42.251 46.799M11.749 34.202L19.53 37.415M34.467 18.418L42.467 15.114" transform="translate(-846.000000, -687.000000) translate(847.000000, 688.000000)"/>
                <path stroke-linecap="square" d="M31 12.5L31 22.5M18 44L25 37M44 44L37 37" transform="translate(-846.000000, -687.000000) translate(847.000000, 688.000000)"/>
                <path stroke-linecap="round" d="M24.574 42.444L27.798 50.251M34.543 21.356L46.411 26.257M18.875 28.643L21.705 35.495M15.202 19.749L16.203 22.173M50 20.5L50 41.5M11.518 27.895L27.518 21.287" transform="translate(-846.000000, -687.000000) translate(847.000000, 688.000000)"/>
            </g>
        </g>
    </g>
</svg>
