<svg xmlns="http://www.w3.org/2000/svg" width="64" height="64" viewBox="0 0 64 64">
    <g fill="none" fill-rule="evenodd" stroke-linejoin="round">
        <g stroke="#3D1152" stroke-width="2">
            <g>
                <path stroke-linecap="round" d="M20 24L56 24 56 18 20 18z" transform="translate(-848.000000, -790.000000) translate(849.000000, 791.000000)"/>
                <path stroke-linecap="square" d="M34 44L20 44 20 30 56 30 56 42" transform="translate(-848.000000, -790.000000) translate(849.000000, 791.000000)"/>
                <path stroke-linecap="round" d="M6 30L14 30M6 18L14 18" transform="translate(-848.000000, -790.000000) translate(849.000000, 791.000000)"/>
                <g>
                    <path stroke-linecap="round" d="M38 35L38 57 44 52 50 62 55 59 49 49 56 47z" transform="translate(-848.000000, -790.000000) translate(849.000000, 791.000000)"/>
                    <path stroke-linecap="square" d="M0 12L62 12M8 6c0 .552-.448 1-1 1s-1-.448-1-1 .448-1 1-1 1 .448 1 1zM15 6c0 .552-.448 1-1 1s-1-.448-1-1 .448-1 1-1 1 .448 1 1zM22 6c0 .552-.448 1-1 1s-1-.448-1-1 .448-1 1-1 1 .448 1 1z" transform="translate(-848.000000, -790.000000) translate(849.000000, 791.000000)"/>
                    <path stroke-linecap="square" d="M56 52h2c2.209 0 4-1.791 4-4V4c0-2.209-1.791-4-4-4H4C1.791 0 0 1.791 0 4v44c0 2.209 1.791 4 4 4h30" transform="translate(-848.000000, -790.000000) translate(849.000000, 791.000000)"/>
                </g>
            </g>
        </g>
    </g>
</svg>
