<svg xmlns="http://www.w3.org/2000/svg" width="64" height="64" viewBox="0 0 64 64">
    <g fill="none" fill-rule="evenodd" stroke-linecap="square" stroke-linejoin="round">
        <g stroke="#3D1152" stroke-width="2">
            <g>
                <path d="M51 62v-6l-6.865-31.272c-1.416-6.453-1.912-13.074-1.473-19.666L43 0H7l.393 5.895c.403 6.044.019 12.116-1.141 18.062L0 56v6M8 56L49 56M62 62v-5.226l-6.865-27.237c-1.416-5.62-1.912-11.387-1.473-17.127L54 8h-5M57 56L60 56" transform="translate(-848.000000, -674.000000) translate(849.000000, 675.000000)"/>
                <path d="M29 32.5c0 1.934-1.566 3.5-3.5 3.5S22 34.434 22 32.5s1.566-3.5 3.5-3.5 3.5 1.566 3.5 3.5zM29.09 25.917l2.998-5.194c4.253 2.384 7.088 6.997 6.904 12.261l-.017.016H33M21.91 25.917l-2.998-5.194c-4.253 2.384-7.088 6.997-6.904 12.261l.017.016H18M21.598 38.893l-3 5.195C20.62 45.294 22.976 46 25.5 46c2.526 0 4.88-.706 6.902-1.912l-3-5.195" transform="translate(-848.000000, -674.000000) translate(849.000000, 675.000000)"/>
            </g>
        </g>
    </g>
</svg>
