<svg xmlns="http://www.w3.org/2000/svg" width="64" height="64" viewBox="0 0 64 64">
    <g fill="none" fill-rule="evenodd" stroke-linejoin="round">
        <g stroke="#3D1152" stroke-width="2">
            <g>
                <path stroke-linecap="square" d="M7 52H2c-1.104 0-2-.896-2-2V2C0 .896.896 0 2 0h58c1.104 0 2 .896 2 2v48c0 1.104-.896 2-2 2h-5" transform="translate(-848.000000, -687.000000) translate(849.000000, 688.000000)"/>
                <path stroke-linecap="square" d="M12 46h-1c0-2.761-2.238-5-5-5V11c2.762 0 5-2.239 5-5h40c0 2.761 2.238 5 5 5v30c-2.762 0-5 2.239-5 5h-1" transform="translate(-848.000000, -687.000000) translate(849.000000, 688.000000)"/>
                <path stroke-linecap="round" d="M24 15L38 15M18 22L44 22" transform="translate(-848.000000, -687.000000) translate(849.000000, 688.000000)"/>
                <path stroke-linecap="square" d="M21 36.201v-.2c0-2.21 1.791-4 4-4h.201c1.061 0 2.078-.423 2.828-1.173l.143-.142c1.562-1.562 4.094-1.562 5.656 0l.143.142c.75.75 1.767 1.172 2.828 1.172H37c2.209 0 4 1.791 4 4v.201c0 1.061.422 2.078 1.172 2.828l.141.142c1.563 1.563 1.563 4.095 0 5.657l-.141.143c-.75.75-1.172 1.767-1.172 2.828V48c0 2.21-1.791 4-4 4h-.201c-1.061 0-2.078.422-2.828 1.172l-.143.141c-1.562 1.563-4.094 1.563-5.656 0l-.143-.14c-.75-.75-1.767-1.173-2.828-1.173H25c-2.209 0-4-1.79-4-4v-.2c0-1.062-.422-2.079-1.172-2.829l-.141-.143c-1.563-1.562-1.563-4.094 0-5.657l.141-.142c.75-.75 1.172-1.767 1.172-2.828z" transform="translate(-848.000000, -687.000000) translate(849.000000, 688.000000)"/>
                <path stroke-linecap="round" d="M34 54L40 62 43 55 50 54 43 45M28 54L22 62 19 55 12 54 19 45M37 42c0 3.313-2.687 6-6 6s-6-2.687-6-6 2.687-6 6-6 6 2.687 6 6z" transform="translate(-848.000000, -687.000000) translate(849.000000, 688.000000)"/>
            </g>
        </g>
    </g>
</svg>
