<svg xmlns="http://www.w3.org/2000/svg" width="64" height="64" viewBox="0 0 64 64">
    <g fill="none" fill-rule="evenodd" stroke-linejoin="round">
        <g stroke="#3D1152" stroke-width="2">
            <g>
                <path stroke-linecap="square" d="M48 8c0 2.209-1.791 4-4 4s-4-1.791-4-4 1.791-4 4-4 4 1.791 4 4zM48 54c0 2.209-1.791 4-4 4s-4-1.791-4-4 1.791-4 4-4 4 1.791 4 4zM58 17c0 2.209-1.791 4-4 4s-4-1.791-4-4 1.791-4 4-4 4 1.791 4 4zM58 45c0 2.209-1.791 4-4 4s-4-1.791-4-4 1.791-4 4-4 4 1.791 4 4zM62 31c0 2.209-1.791 4-4 4s-4-1.791-4-4 1.791-4 4-4 4 1.791 4 4zM36 31L37 31M31 31L32 31M36 31L36 31M11 31L11 31M31 11L31 9M31 53L31 51M31 46L31 44M31 18L31 16" transform="translate(-850.000000, -793.000000) translate(851.000000, 794.000000)"/>
                <path stroke-linecap="round" d="M31 4V0h-4c-1.104 0-2 .896-2 2v1.406c0 .81-.487 1.538-1.234 1.848L17.911 7.68c-.748.309-1.608.137-2.18-.434l-.995-.995c-.781-.781-2.047-.781-2.828 0l-5.657 5.657c-.781.781-.781 2.047 0 2.828l.995.995c.571.572.743 1.432.434 2.18l-2.426 5.855C4.944 24.513 4.216 25 3.406 25H2c-1.104 0-2 .896-2 2v8c0 1.104.896 2 2 2h1.406c.81 0 1.538.487 1.848 1.234l2.426 5.855c.309.748.137 1.608-.434 2.18l-.995.995c-.781.781-.781 2.047 0 2.828l5.657 5.657c.781.78 2.047.78 2.828 0l.995-.995c.572-.571 1.432-.743 2.18-.434l5.855 2.426c.747.31 1.234 1.038 1.234 1.848V60c0 1.104.896 2 2 2h4v-4" transform="translate(-850.000000, -793.000000) translate(851.000000, 794.000000)"/>
                <path stroke-linecap="round" d="M12.675 26c-.437 1.593-.675 3.268-.675 5 0 4.553 1.602 8.73 4.27 12.003" transform="translate(-850.000000, -793.000000) translate(851.000000, 794.000000)"/>
                <path stroke-linecap="square" d="M28 38c-3.866 0-7-3.134-7-7s3.134-7 7-7M31 24L42 24 46 18 50 18M54 31L41 31M31 38L40 38 46 45 50 45M41.965 11.443L36.704 16.704 35 16.704M35 45L38 45 42 50" transform="translate(-850.000000, -793.000000) translate(851.000000, 794.000000)"/>
            </g>
        </g>
    </g>
</svg>
